<svg width="231" height="53" viewBox="0 0 231 53" fill="none" xmlns="http://www.w3.org/2000/svg">
<path d="M59.2489 10.2567H66.2857L75.7095 33.2582H76.0815L85.5053 10.2567H92.5421V42H87.0243V20.192H86.7298L77.9569 41.907H73.834L65.0612 20.1455H64.7667V42H59.2489V10.2567ZM103.661 42.4805C102.152 42.4805 100.794 42.2118 99.5846 41.6745C98.3859 41.1269 97.4353 40.3209 96.7326 39.2566C96.0403 38.1922 95.6941 36.8799 95.6941 35.3196C95.6941 33.9763 95.9421 32.8655 96.4381 31.9872C96.9341 31.1089 97.6109 30.4063 98.4686 29.8793C99.3262 29.3523 100.292 28.9544 101.367 28.6858C102.452 28.4068 103.573 28.2053 104.73 28.0813C106.125 27.9366 107.257 27.8075 108.125 27.6938C108.993 27.5698 109.623 27.3838 110.016 27.1358C110.419 26.8775 110.62 26.4797 110.62 25.9423V25.8493C110.62 24.6817 110.274 23.7776 109.582 23.1369C108.89 22.4963 107.892 22.1759 106.59 22.1759C105.216 22.1759 104.126 22.4756 103.32 23.0749C102.524 23.6742 101.987 24.382 101.708 25.1984L96.4691 24.4544C96.8825 23.0077 97.5644 21.7988 98.5151 20.8275C99.4657 19.8458 100.628 19.1122 102.003 18.6265C103.377 18.1305 104.896 17.8825 106.559 17.8825C107.706 17.8825 108.848 18.0169 109.985 18.2855C111.121 18.5542 112.16 18.9985 113.1 19.6185C114.041 20.2281 114.795 21.06 115.363 22.1139C115.942 23.1679 116.231 24.4854 116.231 26.0663V42H110.837V38.7296H110.651C110.31 39.3909 109.83 40.0109 109.21 40.5895C108.6 41.1579 107.83 41.6177 106.9 41.969C105.981 42.31 104.901 42.4805 103.661 42.4805ZM105.118 38.3576C106.244 38.3576 107.221 38.1354 108.047 37.6911C108.874 37.2364 109.51 36.6371 109.954 35.8931C110.408 35.1491 110.636 34.338 110.636 33.4597V30.6542C110.46 30.7989 110.16 30.9332 109.737 31.0572C109.324 31.1812 108.859 31.2897 108.342 31.3827C107.825 31.4757 107.314 31.5584 106.807 31.6307C106.301 31.7031 105.862 31.7651 105.49 31.8167C104.653 31.9304 103.904 32.1164 103.242 32.3747C102.581 32.633 102.059 32.9947 101.677 33.4597C101.295 33.9143 101.104 34.5033 101.104 35.2266C101.104 36.26 101.481 37.0401 102.235 37.5671C102.989 38.0941 103.95 38.3576 105.118 38.3576ZM120.127 42V18.1925H125.568V22.1604H125.816C126.25 20.7861 126.994 19.727 128.048 18.983C129.112 18.2287 130.326 17.8515 131.69 17.8515C132 17.8515 132.346 17.867 132.728 17.898C133.121 17.9187 133.447 17.9549 133.705 18.0065V23.1679C133.467 23.0852 133.09 23.0129 132.573 22.9509C132.067 22.8786 131.576 22.8424 131.101 22.8424C130.078 22.8424 129.158 23.0646 128.342 23.5089C127.536 23.9429 126.901 24.5474 126.436 25.3224C125.971 26.0973 125.738 26.9912 125.738 28.0038V42H120.127ZM135.687 42V18.1925H141.298V42H135.687ZM138.508 14.8136C137.619 14.8136 136.854 14.5191 136.214 13.9301C135.573 13.3308 135.253 12.6126 135.253 11.7757C135.253 10.9283 135.573 10.2102 136.214 9.6212C136.854 9.02188 137.619 8.72222 138.508 8.72222C139.407 8.72222 140.171 9.02188 140.802 9.6212C141.442 10.2102 141.763 10.9283 141.763 11.7757C141.763 12.6126 141.442 13.3308 140.802 13.9301C140.171 14.5191 139.407 14.8136 138.508 14.8136ZM164.138 24.4854L159.023 25.0434C158.878 24.5267 158.625 24.0411 158.264 23.5864C157.912 23.1317 157.437 22.7649 156.838 22.4859C156.238 22.2069 155.505 22.0674 154.637 22.0674C153.469 22.0674 152.487 22.3206 151.692 22.8269C150.906 23.3332 150.519 23.9894 150.529 24.7954C150.519 25.4877 150.772 26.0508 151.289 26.4848C151.816 26.9188 152.684 27.2753 153.893 27.5543L157.954 28.4223C160.206 28.9079 161.88 29.6778 162.976 30.7317C164.081 31.7857 164.639 33.1652 164.65 34.8702C164.639 36.3685 164.2 37.6911 163.332 38.8381C162.474 39.9747 161.281 40.8634 159.752 41.504C158.222 42.1447 156.466 42.465 154.482 42.465C151.568 42.465 149.222 41.8553 147.445 40.636C145.668 39.4064 144.608 37.6963 144.267 35.5056L149.739 34.9787C149.987 36.0533 150.514 36.8644 151.32 37.4121C152.126 37.9598 153.175 38.2336 154.466 38.2336C155.799 38.2336 156.869 37.9598 157.675 37.4121C158.491 36.8644 158.899 36.1876 158.899 35.3816C158.899 34.6997 158.636 34.1365 158.109 33.6922C157.592 33.2479 156.786 32.9069 155.691 32.6692L151.63 31.8167C149.346 31.3414 147.657 30.5406 146.561 29.4143C145.466 28.2776 144.924 26.8413 144.934 25.1054C144.924 23.6381 145.321 22.3671 146.127 21.2924C146.944 20.2075 148.075 19.3705 149.522 18.7815C150.979 18.1822 152.658 17.8825 154.559 17.8825C157.349 17.8825 159.545 18.4767 161.147 19.665C162.759 20.8533 163.756 22.4601 164.138 24.4854ZM179.419 18.1925V22.5324H165.732V18.1925H179.419ZM169.111 12.4886H174.722V34.8392C174.722 35.5935 174.836 36.1721 175.063 36.5751C175.301 36.9678 175.611 37.2364 175.993 37.3811C176.375 37.5258 176.799 37.5981 177.264 37.5981C177.615 37.5981 177.936 37.5723 178.225 37.5206C178.525 37.4689 178.752 37.4224 178.907 37.3811L179.853 41.7675C179.553 41.8708 179.124 41.9845 178.566 42.1085C178.018 42.2325 177.347 42.3048 176.551 42.3255C175.146 42.3668 173.88 42.155 172.754 41.69C171.627 41.2147 170.734 40.481 170.072 39.4891C169.421 38.4971 169.101 37.2571 169.111 35.7691V12.4886ZM189.216 42.4805C187.707 42.4805 186.349 42.2118 185.14 41.6745C183.941 41.1269 182.99 40.3209 182.288 39.2566C181.595 38.1922 181.249 36.8799 181.249 35.3196C181.249 33.9763 181.497 32.8655 181.993 31.9872C182.489 31.1089 183.166 30.4063 184.024 29.8793C184.881 29.3523 185.847 28.9544 186.922 28.6858C188.007 28.4068 189.128 28.2053 190.285 28.0813C191.68 27.9366 192.812 27.8075 193.68 27.6938C194.548 27.5698 195.178 27.3838 195.571 27.1358C195.974 26.8775 196.175 26.4797 196.175 25.9423V25.8493C196.175 24.6817 195.829 23.7776 195.137 23.1369C194.445 22.4963 193.447 22.1759 192.145 22.1759C190.771 22.1759 189.681 22.4756 188.875 23.0749C188.079 23.6742 187.542 24.382 187.263 25.1984L182.024 24.4544C182.438 23.0077 183.119 21.7988 184.07 20.8275C185.021 19.8458 186.183 19.1122 187.558 18.6265C188.932 18.1305 190.451 17.8825 192.114 17.8825C193.261 17.8825 194.403 18.0169 195.54 18.2855C196.677 18.5542 197.715 18.9985 198.655 19.6185C199.596 20.2281 200.35 21.06 200.918 22.1139C201.497 23.1679 201.786 24.4854 201.786 26.0663V42H196.392V38.7296H196.206C195.865 39.3909 195.385 40.0109 194.765 40.5895C194.155 41.1579 193.385 41.6177 192.455 41.969C191.536 42.31 190.456 42.4805 189.216 42.4805ZM190.673 38.3576C191.799 38.3576 192.776 38.1354 193.602 37.6911C194.429 37.2364 195.065 36.6371 195.509 35.8931C195.964 35.1491 196.191 34.338 196.191 33.4597V30.6542C196.015 30.7989 195.716 30.9332 195.292 31.0572C194.879 31.1812 194.414 31.2897 193.897 31.3827C193.38 31.4757 192.869 31.5584 192.362 31.6307C191.856 31.7031 191.417 31.7651 191.045 31.8167C190.208 31.9304 189.459 32.1164 188.798 32.3747C188.136 32.633 187.614 32.9947 187.232 33.4597C186.85 33.9143 186.659 34.5033 186.659 35.2266C186.659 36.26 187.036 37.0401 187.79 37.5671C188.544 38.0941 189.505 38.3576 190.673 38.3576ZM211.293 28.0503V42H205.682V18.1925H211.045V22.2379H211.324C211.872 20.905 212.745 19.8458 213.944 19.0605C215.153 18.2752 216.646 17.8825 218.423 17.8825C220.066 17.8825 221.497 18.2338 222.716 18.9365C223.946 19.6391 224.897 20.657 225.568 21.9899C226.25 23.3229 226.586 24.94 226.576 26.8413V42H220.965V27.7093C220.965 26.118 220.552 24.8729 219.725 23.9739C218.909 23.0749 217.777 22.6254 216.331 22.6254C215.349 22.6254 214.476 22.8424 213.711 23.2764C212.957 23.7001 212.363 24.3149 211.929 25.1209C211.505 25.9268 211.293 26.9033 211.293 28.0503Z" fill="#E7F2F8"/>
<path d="M24.7468 20.6464L25.8302 2.2085C25.7682 2.20997 25.7062 2.21144 25.6442 2.21439C17.544 2.49482 13.9486 12.5403 20.006 17.9247L23.6015 21.1202C24.0324 21.5025 24.7143 21.2206 24.7468 20.645V20.6464Z" fill="#E7F2F8"/>
<path d="M32.3539 24.7466L50.7918 25.8299C50.7904 25.7679 50.7889 25.7059 50.7859 25.644C50.5055 17.5438 40.46 13.9483 35.0756 20.0057L31.8801 23.6012C31.4978 24.0322 31.7797 24.7141 32.3554 24.7466H32.3539Z" fill="#E7F2F8"/>
<path d="M28.2536 20.6466C28.2875 21.2208 28.9694 21.5041 29.3989 21.1219L43.2023 8.85057C43.161 8.81072 43.1182 8.77086 43.0753 8.73101C37.1463 3.19756 27.4949 7.75982 27.9717 15.8541L28.2536 20.6466Z" fill="#E7F2F8"/>
<path d="M20.6463 24.7469C21.2205 24.7129 21.5039 24.031 21.1216 23.6015L8.85032 9.79816C8.81047 9.83949 8.77061 9.88229 8.73076 9.92509C3.19732 15.8541 7.75957 25.5055 15.8538 25.0288L20.6449 24.7469H20.6463Z" fill="#E7F2F8"/>
<path d="M29.399 31.8784C28.9681 31.4961 28.2862 31.778 28.2537 32.3536L27.1703 50.7916C27.2323 50.7901 27.2943 50.7886 27.3563 50.7857C35.4565 50.5053 39.0519 40.4597 32.9945 35.0754L29.399 31.8799V31.8784Z" fill="#E7F2F8"/>
<path d="M32.3538 28.2536C31.7797 28.2875 31.4963 28.9694 31.8786 29.3989L44.1499 43.2023C44.1897 43.1609 44.2296 43.1182 44.2694 43.0754C49.8029 37.1464 45.2406 27.4949 37.1463 27.9717L32.3538 28.2536Z" fill="#E7F2F8"/>
<path d="M24.7466 32.3538C24.7127 31.7797 24.0308 31.4963 23.6013 31.8786L9.79791 44.1499C9.83924 44.1897 9.88204 44.2296 9.92485 44.2694C15.8539 49.8029 25.5053 45.2406 25.0285 37.1463L24.7466 32.3538Z" fill="#E7F2F8"/>
<path d="M21.1217 29.399C21.504 28.968 21.2221 28.2876 20.6464 28.2537L2.2085 27.1703C2.20997 27.2323 2.21145 27.2943 2.2144 27.3563C2.49484 35.4565 12.5404 39.0519 17.9247 32.9945L21.1202 29.399H21.1217Z" fill="#E7F2F8"/>
</svg>
