<svg width="108" height="108" viewBox="0 0 108 108" fill="none" xmlns="http://www.w3.org/2000/svg">
<path d="M50.2012 41.8824L52.3989 4.47998C52.2731 4.48297 52.1474 4.48594 52.0216 4.49193C35.59 5.06081 28.2963 25.4387 40.5841 36.3612L47.8778 42.8435C48.7521 43.619 50.1353 43.0471 50.2012 41.8794V41.8824Z" fill="#061830"/>
<path d="M65.6326 50.1997L103.035 52.3974C103.032 52.2717 103.029 52.1459 103.023 52.0201C102.454 35.5885 82.0763 28.2949 71.1537 40.5827L64.6715 47.8764C63.896 48.7506 64.4679 50.1338 65.6356 50.1997H65.6326Z" fill="#061830"/>
<path d="M57.3149 41.8827C57.3837 43.0474 58.767 43.6223 59.6383 42.8468L87.6392 17.9538C87.5553 17.873 87.4685 17.7921 87.3817 17.7113C75.3544 6.48636 55.7759 15.7411 56.743 32.1608L57.3149 41.8827Z" fill="#061830"/>
<path d="M41.8832 50.2003C43.0479 50.1315 43.6227 48.7483 42.8473 47.877L17.9543 19.876C17.8734 19.9599 17.7926 20.0467 17.7117 20.1335C6.48683 32.1609 15.7416 51.7394 32.1613 50.7723L41.8802 50.2003H41.8832Z" fill="#061830"/>
<path d="M59.6385 64.667C58.7642 63.8916 57.381 64.4634 57.3151 65.6311L55.1174 103.034C55.2432 103.031 55.3689 103.028 55.4947 103.022C71.9263 102.453 79.22 82.0748 66.9322 71.1523L59.6385 64.67V64.667Z" fill="#061830"/>
<path d="M65.6325 57.3139C64.4678 57.3827 63.8929 58.766 64.6684 59.6373L89.5614 87.6382C89.6422 87.5544 89.7231 87.4676 89.8039 87.3807C101.029 75.3534 91.774 55.7749 75.3544 56.742L65.6325 57.3139Z" fill="#061830"/>
<path d="M50.2008 65.6315C50.132 64.4668 48.7487 63.8919 47.8774 64.6674L19.8765 89.5605C19.9604 89.6413 20.0472 89.7221 20.134 89.8029C32.1613 101.028 51.7398 91.7731 50.7727 75.3534L50.2008 65.6315Z" fill="#061830"/>
<path d="M42.8475 59.6375C43.6229 58.7632 43.0511 57.3829 41.8834 57.3141L4.48096 55.1165C4.48395 55.2422 4.48694 55.368 4.49293 55.4937C5.06181 71.9254 25.4397 79.219 36.3622 66.9312L42.8445 59.6375H42.8475Z" fill="#061830"/>
</svg>
