<svg width="130" height="32" viewBox="0 0 130 32" fill="none" xmlns="http://www.w3.org/2000/svg">
<path d="M31.6176 15.6401C30.1428 15.6401 29.0782 14.4811 29.0782 13.2117C29.0782 11.9422 30.1428 10.7832 31.6176 10.7832C33.0923 10.7832 34.1569 11.9422 34.1569 13.2117C34.1569 14.4811 33.0923 15.6401 31.6176 15.6401Z" fill="#DA5416" stroke="white" stroke-width="11"/>
<path d="M62.1006 13.2117C62.1006 14.4811 61.0359 15.6401 59.5612 15.6401C58.0866 15.6401 57.0219 14.4811 57.0219 13.2117C57.0219 11.9422 58.0866 10.7832 59.5612 10.7832C61.0359 10.7832 62.1006 11.9422 62.1006 13.2117Z" fill="#72599F" stroke="white" stroke-width="11"/>
<path d="M0 20.6546V0.827393H5.26914L10.2395 12.6694H10.7284L15.6716 0.827393H21.0223V20.6546H17.1926V3.73357L17.6815 3.78789L12.3309 16.6077H8.39261L3.01482 3.78789L3.53087 3.73357V20.6546H0Z" fill="#2A303C"/>
<path d="M31.6176 21.1706C30.3139 21.1706 29.1641 20.9624 28.1682 20.5459C27.1723 20.1295 26.3304 19.5682 25.6423 18.862C24.9542 18.1377 24.4291 17.3229 24.067 16.4175C23.723 15.5122 23.5509 14.5706 23.5509 13.5928V13.0225C23.5509 12.0085 23.732 11.0488 24.0942 10.1435C24.4744 9.22 25.0086 8.40518 25.6966 7.69901C26.4028 6.97473 27.2538 6.41341 28.2497 6.01505C29.2456 5.59859 30.3682 5.39036 31.6176 5.39036C32.867 5.39036 33.9896 5.59859 34.9855 6.01505C35.9814 6.41341 36.8234 6.97473 37.5115 7.69901C38.2176 8.40518 38.7518 9.22 39.1139 10.1435C39.4761 11.0488 39.6571 12.0085 39.6571 13.0225V13.5928C39.6571 14.5706 39.4761 15.5122 39.1139 16.4175C38.7699 17.3229 38.2538 18.1377 37.5658 18.862C36.8777 19.5682 36.0357 20.1295 35.0398 20.5459C34.044 20.9624 32.9032 21.1706 31.6176 21.1706ZM31.6176 17.9385C32.5411 17.9385 33.3197 17.7394 33.9534 17.341C34.5872 16.9245 35.067 16.3723 35.3929 15.6842C35.7189 14.978 35.8818 14.1813 35.8818 13.2941C35.8818 12.3887 35.7098 11.592 35.3658 10.904C35.0398 10.1978 34.551 9.64551 33.8991 9.24716C33.2654 8.8307 32.5049 8.62247 31.6176 8.62247C30.7304 8.62247 29.9608 8.8307 29.309 9.24716C28.6752 9.64551 28.1863 10.1978 27.8423 10.904C27.4983 11.592 27.3263 12.3887 27.3263 13.2941C27.3263 14.1813 27.4892 14.978 27.8151 15.6842C28.1592 16.3723 28.6481 16.9245 29.2818 17.341C29.9156 17.7394 30.6942 17.9385 31.6176 17.9385Z" fill="#2A303C"/>
<path d="M48.2863 20.8447C46.9283 20.8447 45.8057 20.6727 44.9184 20.3287C44.0493 19.9665 43.3974 19.369 42.9629 18.5361C42.5283 17.685 42.311 16.5443 42.311 15.1138L42.3382 1.75085H45.8691L45.8419 15.3583C45.8419 16.0826 46.032 16.6439 46.4123 17.0422C46.8106 17.4225 47.3719 17.6126 48.0962 17.6126H50.4049V20.8447H48.2863ZM39.9752 8.67679V5.90641H50.4049V8.67679H39.9752Z" fill="#2A303C"/>
<path d="M59.4964 21.1706C58.1927 21.1706 57.0429 20.9624 56.047 20.5459C55.0511 20.1295 54.2092 19.5682 53.5211 18.862C52.833 18.1377 52.3079 17.3229 51.9458 16.4175C51.6018 15.5122 51.4297 14.5706 51.4297 13.5928V13.0225C51.4297 12.0085 51.6108 11.0488 51.973 10.1435C52.3532 9.22 52.8874 8.40518 53.5754 7.69901C54.2816 6.97473 55.1326 6.41341 56.1285 6.01505C57.1244 5.59859 58.247 5.39036 59.4964 5.39036C60.7458 5.39036 61.8684 5.59859 62.8643 6.01505C63.8602 6.41341 64.7022 6.97473 65.3903 7.69901C66.0964 8.40518 66.6306 9.22 66.9927 10.1435C67.3549 11.0488 67.5359 12.0085 67.5359 13.0225V13.5928C67.5359 14.5706 67.3549 15.5122 66.9927 16.4175C66.6487 17.3229 66.1326 18.1377 65.4446 18.862C64.7565 19.5682 63.9145 20.1295 62.9187 20.5459C61.9228 20.9624 60.782 21.1706 59.4964 21.1706ZM59.4964 17.9385C60.4199 17.9385 61.1985 17.7394 61.8322 17.341C62.466 16.9245 62.9458 16.3723 63.2717 15.6842C63.5977 14.978 63.7606 14.1813 63.7606 13.2941C63.7606 12.3887 63.5886 11.592 63.2446 10.904C62.9187 10.1978 62.4298 9.64551 61.7779 9.24716C61.1442 8.8307 60.3837 8.62247 59.4964 8.62247C58.6092 8.62247 57.8396 8.8307 57.1878 9.24716C56.554 9.64551 56.0651 10.1978 55.7211 10.904C55.3771 11.592 55.2051 12.3887 55.2051 13.2941C55.2051 14.1813 55.368 14.978 55.6939 15.6842C56.038 16.3723 56.5269 16.9245 57.1606 17.341C57.7944 17.7394 58.573 17.9385 59.4964 17.9385Z" fill="#2A303C"/>
<path d="M76.4819 19.2765V15.9357H80.3387C81.1173 15.9357 81.7692 15.7818 82.2943 15.474C82.8375 15.1662 83.2449 14.7407 83.5165 14.1975C83.8062 13.6542 83.9511 13.0296 83.9511 12.3234C83.9511 11.6172 83.8062 10.9925 83.5165 10.4493C83.2449 9.9061 82.8375 9.48963 82.2943 9.19992C81.7692 8.8921 81.1173 8.73819 80.3387 8.73819H76.4819V5.39745H80.0128C81.6786 5.39745 83.091 5.66905 84.2498 6.21226C85.4268 6.75547 86.3231 7.53408 86.9387 8.54807C87.5544 9.54396 87.8622 10.73 87.8622 12.1061V12.5407C87.8622 13.9168 87.5544 15.1119 86.9387 16.1259C86.3231 17.1217 85.4268 17.9003 84.2498 18.4617C83.091 19.0049 81.6786 19.2765 80.0128 19.2765H76.4819ZM73.1683 25.3604V5.39745H77.0251V25.3604H73.1683Z" fill="#2A303C"/>
<path d="M98.4104 25.3604V20.9876H97.7857V16.1259C97.7857 15.2748 97.5775 14.6411 97.161 14.2246C96.7446 13.8082 96.1018 13.5999 95.2327 13.5999C94.78 13.5999 94.2368 13.609 93.603 13.6271C92.9693 13.6452 92.3265 13.6724 91.6746 13.7086C91.0409 13.7267 90.4705 13.7538 89.9635 13.7901V10.5851C90.38 10.5489 90.8508 10.5127 91.3759 10.4765C91.901 10.4403 92.4351 10.4221 92.9783 10.4221C93.5396 10.404 94.0648 10.395 94.5536 10.395C96.0746 10.395 97.3331 10.5942 98.329 10.9925C99.3429 11.3909 100.103 12.0156 100.61 12.8666C101.136 13.7176 101.398 14.8312 101.398 16.2073V25.3604H98.4104ZM93.6573 25.7407C92.589 25.7407 91.6475 25.5506 90.8326 25.1703C90.0359 24.7901 89.4112 24.2469 88.9586 23.5407C88.524 22.8345 88.3067 21.9835 88.3067 20.9876C88.3067 19.9012 88.5693 19.0139 89.0944 18.3259C89.6376 17.6378 90.389 17.1217 91.3487 16.7777C92.3265 16.4337 93.4672 16.2617 94.7709 16.2617H98.1932V18.516H94.7166C93.8475 18.516 93.1775 18.7333 92.7067 19.1678C92.2541 19.5843 92.0277 20.1275 92.0277 20.7975C92.0277 21.4674 92.2541 22.0106 92.7067 22.4271C93.1775 22.8436 93.8475 23.0518 94.7166 23.0518C95.2417 23.0518 95.7215 22.9613 96.1561 22.7802C96.6088 22.581 96.98 22.2551 97.2697 21.8024C97.5775 21.3316 97.7495 20.6979 97.7857 19.9012L98.7092 20.9604C98.6187 21.9925 98.3652 22.8617 97.9487 23.5678C97.5504 24.274 96.989 24.8172 96.2648 25.1975C95.5586 25.5596 94.6894 25.7407 93.6573 25.7407Z" fill="#2A303C"/>
<path d="M103.735 31.1728V27.9407H106.506C107.031 27.9407 107.465 27.8683 107.809 27.7234C108.172 27.5967 108.47 27.3794 108.706 27.0716C108.941 26.7818 109.122 26.3744 109.249 25.8493L113.214 10.6123H116.827L112.454 26.6641C112.164 27.7687 111.757 28.6469 111.232 29.2987C110.707 29.9687 110.028 30.4485 109.195 30.7382C108.38 31.0279 107.366 31.1728 106.153 31.1728H103.735ZM108.326 25.0345V22.0469H111.476V25.0345H108.326ZM107.049 25.0345L102.269 10.6123H106.071L110.607 25.0345H107.049Z" fill="#2A303C"/>
<path d="M123.553 25.8222C121.525 25.8222 119.931 25.3967 118.773 24.5456C117.632 23.6765 117.034 22.4814 116.98 20.9604H120.375C120.429 21.4674 120.71 21.9292 121.217 22.3456C121.724 22.7621 122.521 22.9703 123.607 22.9703C124.512 22.9703 125.228 22.8074 125.753 22.4814C126.296 22.1555 126.568 21.7119 126.568 21.1506C126.568 20.6617 126.359 20.2724 125.943 19.9827C125.545 19.6929 124.857 19.5028 123.879 19.4123L122.575 19.2765C120.927 19.0954 119.66 18.6246 118.773 17.8641C117.885 17.1036 117.442 16.0896 117.442 14.8222C117.442 13.8082 117.695 12.9571 118.202 12.2691C118.709 11.581 119.406 11.0649 120.294 10.7209C121.199 10.3588 122.231 10.1777 123.39 10.1777C125.201 10.1777 126.667 10.5761 127.79 11.3728C128.912 12.1695 129.501 13.3374 129.555 14.8765H126.16C126.124 14.3695 125.871 13.9349 125.4 13.5728C124.929 13.2106 124.25 13.0296 123.363 13.0296C122.566 13.0296 121.95 13.1835 121.516 13.4913C121.081 13.7991 120.864 14.1975 120.864 14.6863C120.864 15.1571 121.036 15.5193 121.38 15.7728C121.742 16.0263 122.322 16.1983 123.118 16.2888L124.422 16.4246C126.16 16.6057 127.518 17.0855 128.496 17.8641C129.492 18.6427 129.99 19.6929 129.99 21.0148C129.99 21.9925 129.718 22.8436 129.175 23.5678C128.65 24.274 127.908 24.8263 126.948 25.2246C125.988 25.623 124.857 25.8222 123.553 25.8222Z" fill="#2A303C"/>
</svg>
