<svg xmlns="http://www.w3.org/2000/svg" width="144" height="34" viewBox="0 0 144 34" fill="none">
  <path
    d="M35.3497 17.2124C33.6352 17.2124 32.2452 15.8416 32.2452 14.1507C32.2452 12.4598 33.6352 11.089 35.3497 11.089C37.0643 11.089 38.4542 12.4598 38.4542 14.1507C38.4542 15.8416 37.0643 17.2124 35.3497 17.2124Z"
    fill="#DA5416" />
  <path
    d="M69.1379 14.1507C69.1379 15.8416 67.748 17.2124 66.0334 17.2124C64.3189 17.2124 62.9289 15.8416 62.9289 14.1507C62.9289 12.4598 64.3189 11.089 66.0334 11.089C67.748 11.089 69.1379 12.4598 69.1379 14.1507Z"
    fill="#72599F" />
  <path
    d="M0.632324 22.3232V0.552002H6.4181L11.8758 13.5551H12.4126L17.8405 0.552002H23.7158V22.3232H19.5107V3.74312L20.0475 3.80277L14.1722 17.8795H9.84781L3.94274 3.80277L4.50939 3.74312V22.3232H0.632324Z"
    fill="white" />
  <path
    d="M35.35 22.8899C33.9185 22.8899 32.6559 22.6612 31.5624 22.2039C30.4689 21.7466 29.5443 21.1303 28.7888 20.3549C28.0333 19.5596 27.4567 18.6649 27.059 17.6707C26.6813 16.6766 26.4924 15.6427 26.4924 14.5691V13.9428C26.4924 12.8294 26.6912 11.7756 27.0889 10.7815C27.5064 9.76749 28.0929 8.87278 28.8485 8.09737C29.6239 7.30207 30.5583 6.68572 31.6519 6.2483C32.7454 5.79101 33.9781 5.56236 35.35 5.56236C36.7219 5.56236 37.9546 5.79101 39.0481 6.2483C40.1417 6.68572 41.0662 7.30207 41.8217 8.09737C42.5971 8.87278 43.1837 9.76749 43.5813 10.7815C43.979 11.7756 44.1778 12.8294 44.1778 13.9428V14.5691C44.1778 15.6427 43.979 16.6766 43.5813 17.6707C43.2035 18.6649 42.6369 19.5596 41.8814 20.3549C41.1258 21.1303 40.2013 21.7466 39.1078 22.2039C38.0142 22.6612 36.7617 22.8899 35.35 22.8899ZM35.35 19.3409C36.364 19.3409 37.2189 19.1222 37.9148 18.6847C38.6107 18.2274 39.1376 17.621 39.4955 16.8655C39.8534 16.0901 40.0323 15.2153 40.0323 14.241C40.0323 13.2469 39.8434 12.3721 39.4657 11.6165C39.1078 10.8411 38.5709 10.2347 37.8552 9.79731C37.1593 9.34002 36.3242 9.11137 35.35 9.11137C34.3758 9.11137 33.5308 9.34002 32.815 9.79731C32.1191 10.2347 31.5823 10.8411 31.2045 11.6165C30.8268 12.3721 30.6379 13.2469 30.6379 14.241C30.6379 15.2153 30.8168 16.0901 31.1747 16.8655C31.5525 17.621 32.0893 18.2274 32.7852 18.6847C33.4811 19.1222 34.336 19.3409 35.35 19.3409Z"
    fill="white" />
  <path
    d="M53.6531 22.532C52.1619 22.532 50.9292 22.3431 49.9549 21.9653C49.0006 21.5677 48.2848 20.9116 47.8076 19.997C47.3305 19.0625 47.0919 17.8099 47.0919 16.2392L47.1217 1.566H50.9988L50.9689 16.5076C50.9689 17.3029 51.1777 17.9193 51.5952 18.3567C52.0326 18.7742 52.649 18.983 53.4443 18.983H55.9793V22.532H53.6531ZM44.527 9.17102V6.12901H55.9793V9.17102H44.527Z"
    fill="white" />
  <path
    d="M65.9623 22.8899C64.5307 22.8899 63.2682 22.6612 62.1747 22.2039C61.0811 21.7466 60.1566 21.1303 59.4011 20.3549C58.6456 19.5596 58.069 18.6649 57.6713 17.6707C57.2935 16.6766 57.1047 15.6427 57.1047 14.5691V13.9428C57.1047 12.8294 57.3035 11.7756 57.7011 10.7815C58.1187 9.76749 58.7052 8.87278 59.4607 8.09737C60.2361 7.30207 61.1706 6.68572 62.2641 6.2483C63.3577 5.79101 64.5904 5.56236 65.9623 5.56236C67.3342 5.56236 68.5669 5.79101 69.6604 6.2483C70.7539 6.68572 71.6785 7.30207 72.434 8.09737C73.2094 8.87278 73.7959 9.76749 74.1936 10.7815C74.5912 11.7756 74.7901 12.8294 74.7901 13.9428V14.5691C74.7901 15.6427 74.5912 16.6766 74.1936 17.6707C73.8158 18.6649 73.2492 19.5596 72.4936 20.3549C71.7381 21.1303 70.8136 21.7466 69.72 22.2039C68.6265 22.6612 67.3739 22.8899 65.9623 22.8899ZM65.9623 19.3409C66.9763 19.3409 67.8312 19.1222 68.5271 18.6847C69.223 18.2274 69.7499 17.621 70.1077 16.8655C70.4656 16.0901 70.6446 15.2153 70.6446 14.241C70.6446 13.2469 70.4557 12.3721 70.0779 11.6165C69.72 10.8411 69.1832 10.2347 68.4675 9.79731C67.7716 9.34002 66.9365 9.11137 65.9623 9.11137C64.988 9.11137 64.143 9.34002 63.4273 9.79731C62.7314 10.2347 62.1946 10.8411 61.8168 11.6165C61.439 12.3721 61.2501 13.2469 61.2501 14.241C61.2501 15.2153 61.4291 16.0901 61.787 16.8655C62.1647 17.621 62.7016 18.2274 63.3974 18.6847C64.0933 19.1222 64.9483 19.3409 65.9623 19.3409Z"
    fill="white" />
  <path
    d="M84.6132 20.81V17.1417H88.8481C89.703 17.1417 90.4188 16.9727 90.9954 16.6347C91.5919 16.2967 92.0392 15.8295 92.3375 15.233C92.6556 14.6365 92.8146 13.9506 92.8146 13.1752C92.8146 12.3997 92.6556 11.7138 92.3375 11.1173C92.0392 10.5209 91.5919 10.0636 90.9954 9.74544C90.4188 9.40744 89.703 9.23844 88.8481 9.23844H84.6132V5.57014H88.4902C90.3194 5.57014 91.8702 5.86838 93.1427 6.46485C94.4351 7.06132 95.4192 7.91627 96.0952 9.02968C96.7712 10.1232 97.1092 11.4255 97.1092 12.9366V13.4137C97.1092 14.9248 96.7712 16.237 96.0952 17.3505C95.4192 18.444 94.4351 19.2989 93.1427 19.9153C91.8702 20.5118 90.3194 20.81 88.4902 20.81H84.6132ZM80.9747 27.4905V5.57014H85.2096V27.4905H80.9747Z"
    fill="white" />
  <path
    d="M108.692 27.4905V22.6889H108.006V17.3505C108.006 16.416 107.777 15.7201 107.32 15.2628C106.863 14.8055 106.157 14.5769 105.202 14.5769C104.705 14.5769 104.109 14.5868 103.413 14.6067C102.717 14.6266 102.011 14.6564 101.295 14.6962C100.6 14.716 99.9733 14.7459 99.4166 14.7856V11.2664C99.8739 11.2267 100.391 11.1869 100.967 11.1472C101.544 11.1074 102.131 11.0875 102.727 11.0875C103.343 11.0676 103.92 11.0577 104.457 11.0577C106.127 11.0577 107.509 11.2764 108.602 11.7138C109.716 12.1512 110.551 12.8372 111.107 13.7716C111.684 14.7061 111.972 15.9289 111.972 17.4399V27.4905H108.692ZM103.473 27.908C102.3 27.908 101.266 27.6992 100.371 27.2817C99.4961 26.8642 98.8102 26.2677 98.3131 25.4923C97.836 24.7169 97.5974 23.7824 97.5974 22.6889C97.5974 21.4959 97.8857 20.5217 98.4622 19.7662C99.0587 19.0106 99.8839 18.444 100.938 18.0662C102.011 17.6885 103.264 17.4996 104.695 17.4996H108.453V19.9749H104.636C103.681 19.9749 102.946 20.2135 102.429 20.6907C101.932 21.148 101.683 21.7445 101.683 22.4801C101.683 23.2158 101.932 23.8122 102.429 24.2695C102.946 24.7268 103.681 24.9555 104.636 24.9555C105.212 24.9555 105.739 24.8561 106.216 24.6572C106.713 24.4385 107.121 24.0806 107.439 23.5836C107.777 23.0666 107.966 22.3708 108.006 21.4959L109.02 22.6591C108.92 23.7924 108.642 24.7467 108.185 25.5221C107.747 26.2975 107.131 26.894 106.336 27.3115C105.56 27.7092 104.606 27.908 103.473 27.908Z"
    fill="white" />
  <path
    d="M114.539 33.8727V30.3237H117.581C118.157 30.3237 118.635 30.2442 119.012 30.0851C119.41 29.9459 119.738 29.7074 119.997 29.3694C120.255 29.0512 120.454 28.6039 120.593 28.0273L124.947 11.2963H128.914L124.112 28.922C123.794 30.1348 123.347 31.0991 122.77 31.8149C122.194 32.5505 121.448 33.0774 120.533 33.3955C119.639 33.7137 118.525 33.8727 117.193 33.8727H114.539ZM119.579 27.1326V23.852H123.039V27.1326H119.579ZM118.177 27.1326L112.928 11.2963H117.104L122.084 27.1326H118.177Z"
    fill="white" />
  <path
    d="M136.299 27.9975C134.072 27.9975 132.323 27.5302 131.05 26.5958C129.798 25.6414 129.142 24.3292 129.082 22.6591H132.81C132.87 23.2158 133.178 23.7228 133.734 24.1801C134.291 24.6374 135.166 24.866 136.359 24.866C137.353 24.866 138.138 24.6871 138.715 24.3292C139.311 23.9713 139.61 23.4842 139.61 22.8678C139.61 22.331 139.381 21.9035 138.924 21.5854C138.486 21.2673 137.731 21.0585 136.657 20.9591L135.226 20.81C133.416 20.6112 132.025 20.0942 131.05 19.2592C130.076 18.4241 129.589 17.3107 129.589 15.9189C129.589 14.8055 129.867 13.871 130.424 13.1155C130.981 12.36 131.746 11.7933 132.72 11.4156C133.715 11.0179 134.848 10.8191 136.12 10.8191C138.109 10.8191 139.719 11.2565 140.952 12.1313C142.184 13.0062 142.831 14.2886 142.89 15.9786H139.162C139.123 15.4219 138.844 14.9447 138.327 14.547C137.81 14.1494 137.065 13.9506 136.091 13.9506C135.216 13.9506 134.54 14.1196 134.063 14.4576C133.585 14.7956 133.347 15.233 133.347 15.7698C133.347 16.2867 133.536 16.6844 133.913 16.9627C134.311 17.2411 134.947 17.43 135.822 17.5294L137.254 17.6785C139.162 17.8773 140.654 18.4042 141.727 19.2592C142.821 20.1141 143.367 21.2673 143.367 22.7187C143.367 23.7923 143.069 24.7268 142.473 25.5221C141.896 26.2975 141.081 26.9039 140.027 27.3414C138.973 27.7788 137.731 27.9975 136.299 27.9975Z"
    fill="white" />
</svg>