<svg width="241" height="241" viewBox="0 0 241 241" fill="none" xmlns="http://www.w3.org/2000/svg">
<path d="M112.528 93.8824L117.454 10.042C117.172 10.0487 116.89 10.0554 116.608 10.0688C79.7753 11.344 63.426 57.0227 90.9701 81.5063L107.319 96.0368C109.279 97.7751 112.38 96.4932 112.528 93.8757V93.8824Z" fill="#E7F2F8"/>
<path d="M147.118 112.526L230.959 117.453C230.952 117.171 230.945 116.889 230.932 116.607C229.657 79.7742 183.978 63.4249 159.494 90.969L144.964 107.318C143.226 109.278 144.507 112.379 147.125 112.526H147.118Z" fill="#E7F2F8"/>
<path d="M128.473 93.8832C128.628 96.494 131.728 97.7826 133.681 96.0443L196.448 40.2446C196.26 40.0634 196.065 39.8822 195.87 39.701C168.91 14.5394 125.024 35.2848 127.191 72.0908L128.473 93.8832Z" fill="#E7F2F8"/>
<path d="M93.882 112.528C96.4928 112.373 97.7814 109.273 96.0431 107.32L40.2435 44.5535C40.0623 44.7414 39.8811 44.936 39.6998 45.1307C14.5383 72.0909 35.2837 115.978 72.0897 113.81L93.8753 112.528H93.882Z" fill="#E7F2F8"/>
<path d="M133.682 144.956C131.722 143.218 128.622 144.5 128.474 147.117L123.548 230.958C123.83 230.951 124.111 230.944 124.393 230.931C161.226 229.656 177.575 183.977 150.031 159.493L133.682 144.963V144.956Z" fill="#E7F2F8"/>
<path d="M147.118 128.473C144.507 128.628 143.219 131.728 144.957 133.681L200.756 196.448C200.938 196.26 201.119 196.065 201.3 195.871C226.462 168.91 205.716 125.024 168.91 127.191L147.118 128.473Z" fill="#E7F2F8"/>
<path d="M112.527 147.118C112.372 144.507 109.272 143.219 107.319 144.957L44.5524 200.757C44.7403 200.938 44.9349 201.119 45.1295 201.3C72.0897 226.462 115.976 205.716 113.809 168.91L112.527 147.118Z" fill="#E7F2F8"/>
<path d="M96.0435 133.682C97.7818 131.722 96.4999 128.628 93.8824 128.474L10.042 123.548C10.0487 123.83 10.0554 124.111 10.0688 124.393C11.344 161.226 57.0227 177.575 81.5063 150.031L96.0368 133.682H96.0435Z" fill="#E7F2F8"/>
</svg>
